<svg aria-hidden="true" style="position: absolute; width: 0; height: 0; overflow: hidden;" version="1.1" xmlns="http://www.w3.org/2000/svg" xmlns:xlink="http://www.w3.org/1999/xlink">
<defs>
<symbol id="icon-icon-arrow-bottom" viewBox="0 0 32 32">
<path d="M15.532 21.711l-11.175-11.175c-0.343-0.343-0.899-0.343-1.242 0l-0.766 0.766c-0.343 0.343-0.343 0.899 0 1.242l13.184 13.184c0.343 0.343 0.899 0.343 1.242 0l13.184-13.184c0.343-0.343 0.343-0.899 0-1.242l-0.766-0.766c-0.343-0.343-0.899-0.343-1.242 0l-11.175 11.175c-0.343 0.343-0.899 0.343-1.242 0z"></path>
</symbol>
<symbol id="icon-icon-bag-2" viewBox="0 0 32 32">
<path d="M23.62 11.849h-1.125v-3.94c0-3.222-2.622-5.844-5.844-5.844s-5.844 2.622-5.844 5.844v3.94h-1.551c-1.181 0-2.142 0.961-2.142 2.142v14.364c0 1.181 0.961 2.142 2.142 2.142h14.364c1.181 0 2.142-0.961 2.142-2.142v-14.363c0-1.181-0.961-2.142-2.142-2.142zM12.052 7.909c0-2.536 2.063-4.599 4.599-4.599s4.599 2.063 4.599 4.599v3.94h-9.198v-3.94zM24.517 28.355c0 0.495-0.402 0.897-0.897 0.897h-14.363c-0.495 0-0.897-0.402-0.897-0.897v-14.363c0-0.495 0.402-0.897 0.897-0.897h1.551s11.687 0 11.687 0v0s1.125 0 1.125 0c0.495 0 0.897 0.402 0.897 0.897v14.364z"></path>
</symbol>
<symbol id="icon-icon-bag-solid" viewBox="0 0 32 32">
<path d="M18.582 1.11h-3.678c-2.316 0-4.2 1.884-4.2 4.2v4.331c0 0.256 0.209 0.465 0.465 0.465h0.554c0.256 0 0.465-0.209 0.465-0.465v-3.99c0-1.772 1.441-3.213 3.213-3.213h2.684c1.772 0 3.213 1.441 3.213 3.213v3.99c0 0.256 0.209 0.465 0.465 0.465h0.554c0.256 0 0.465-0.209 0.465-0.465v-4.331c0-2.316-1.884-4.2-4.2-4.2z"></path>
<path d="M28.429 27.93l-2.28-14.721c-0.194-1.251-1.27-2.174-2.536-2.174h-13.803c-1.266 0-2.342 0.923-2.536 2.174l-2.28 14.721c-0.241 1.556 0.962 2.959 2.536 2.959h18.363c1.574 0 2.777-1.404 2.536-2.959zM11.408 14.55c-0.624 0-1.13-0.506-1.13-1.13s0.506-1.13 1.13-1.13 1.13 0.506 1.13 1.13-0.506 1.13-1.13 1.13zM22.015 14.55c-0.624 0-1.13-0.506-1.13-1.13s0.506-1.13 1.13-1.13 1.13 0.506 1.13 1.13-0.506 1.13-1.13 1.13z"></path>
</symbol>
<symbol id="icon-icon-facebook" viewBox="0 0 32 32">
<path fill="#232324" style="fill: var(--color1, #232324)" d="M29.547 16c0-7.482-6.065-13.547-13.547-13.547s-13.547 6.065-13.547 13.547c0 6.762 4.954 12.366 11.43 13.382v-9.466h-3.44v-3.916h3.44v-2.985c0-3.395 2.022-5.27 5.117-5.27 1.482 0 3.033 0.265 3.033 0.265v3.334h-1.708c-1.683 0-2.208 1.044-2.208 2.116v2.541h3.757l-0.601 3.916h-3.157v9.466c6.476-1.016 11.43-6.62 11.43-13.382z"></path>
<path fill="#fff" style="fill: var(--color2, #fff)" d="M21.273 19.916l0.601-3.916h-3.757v-2.541c0-1.071 0.525-2.116 2.208-2.116h1.708v-3.334s-1.55-0.265-3.033-0.265c-3.094 0-5.117 1.875-5.117 5.27v2.985h-3.44v3.916h3.44v9.466c0.69 0.108 1.397 0.165 2.117 0.165s1.427-0.057 2.117-0.165v-9.466h3.157z"></path>
</symbol>
<symbol id="icon-icon-heart" viewBox="0 0 32 32">
<path fill="#ff2c81" style="fill: var(--color3, #ff2c81)" d="M18.525 8.838l-2.507 2.454-2.454-2.507c-2.326-2.376-6.185-2.656-8.63-0.402-2.53 2.332-2.617 6.275-0.228 8.716l8.709 8.897c1.337 1.365 3.526 1.389 4.892 0.052l8.897-8.709c2.441-2.389 2.439-6.334-0.041-8.719-2.396-2.305-6.261-2.108-8.637 0.218z"></path>
</symbol>
<symbol id="icon-icon-insta" viewBox="0 0 32 32">
<path d="M23.108 7.938c-0.869 0-1.574 0.705-1.574 1.574s0.705 1.574 1.574 1.574 1.574-0.705 1.574-1.574-0.705-1.574-1.574-1.574z"></path>
<path d="M16.11 9.957c-3.646 0-6.612 2.966-6.612 6.612s2.966 6.612 6.612 6.612 6.612-2.966 6.612-6.612-2.966-6.612-6.612-6.612zM16.11 20.804c-2.336 0-4.235-1.9-4.235-4.235s1.9-4.235 4.235-4.235 4.235 1.9 4.235 4.235-1.9 4.235-4.235 4.235z"></path>
<path d="M21.359 29.993h-10.719c-4.447 0-8.064-3.617-8.064-8.064v-10.719c0-4.447 3.617-8.064 8.064-8.064h10.719c4.447 0 8.065 3.617 8.065 8.064v10.719c0 4.447-3.618 8.064-8.065 8.064zM10.64 5.67c-3.054 0-5.538 2.484-5.538 5.538v10.719c0 3.054 2.484 5.538 5.538 5.538h10.719c3.054 0 5.539-2.484 5.539-5.538v-10.719c0-3.054-2.485-5.538-5.539-5.538h-10.719z"></path>
</symbol>
<symbol id="icon-icon-menu" viewBox="0 0 32 32">
<path d="M2.775 6.839h20.473c0.104 0 0.188 0.084 0.188 0.188v2.404c0 0.104-0.084 0.188-0.188 0.188h-20.473c-0.104 0-0.188-0.084-0.188-0.188v-2.404c0-0.104 0.084-0.188 0.188-0.188z"></path>
<path d="M2.775 13.788h14.913c0.104 0 0.188 0.084 0.188 0.188v2.404c0 0.104-0.084 0.188-0.188 0.188h-14.913c-0.104 0-0.188-0.084-0.188-0.188v-2.404c0-0.104 0.084-0.188 0.188-0.188z"></path>
<path d="M2.775 20.738h27.422c0.104 0 0.188 0.084 0.188 0.188v2.404c0 0.104-0.084 0.188-0.188 0.188h-27.422c-0.104 0-0.188-0.084-0.188-0.188v-2.404c0-0.104 0.084-0.188 0.188-0.188z"></path>
</symbol>
<symbol id="icon-icon-search" viewBox="0 0 32 32">
<path d="M25.754 26.567l-8.421-9.383c1.178-1.302 1.87-2.955 1.966-4.732 0.111-2.050-0.583-4.021-1.954-5.549s-3.255-2.431-5.306-2.542-4.021 0.583-5.549 1.955c-1.528 1.371-2.431 3.255-2.542 5.306s0.583 4.021 1.955 5.549c1.371 1.528 3.255 2.431 5.306 2.541 0.142 0.008 0.283 0.011 0.425 0.011 1.761 0 3.445-0.596 4.815-1.703l8.4 9.36c0.065 0.073 0.178 0.079 0.251 0.014l0.641-0.576c0.073-0.065 0.079-0.178 0.014-0.251zM11.278 18.433c-1.709-0.092-3.279-0.844-4.422-2.118-2.359-2.629-2.14-6.687 0.489-9.047 1.221-1.096 2.751-1.636 4.276-1.636 1.757 0 3.508 0.717 4.771 2.124 2.359 2.629 2.14 6.687-0.489 9.047-1.274 1.143-2.916 1.721-4.625 1.629z"></path>
</symbol>
<symbol id="icon-icon-twitter" viewBox="0 0 32 32">
<path d="M29.132 8.283c-0.841 0.38-1.771 0.611-2.678 0.763 0.431-0.073 1.063-0.852 1.317-1.168 0.387-0.481 0.708-1.029 0.889-1.621 0.023-0.046 0.041-0.104-0.006-0.139-0.058-0.023-0.096-0.011-0.142 0.012-1.013 0.543-2.060 0.936-3.176 1.215-0.092 0.023-0.161 0-0.219-0.058-0.092-0.104-0.179-0.203-0.277-0.284-0.469-0.399-0.971-0.711-1.538-0.943-0.744-0.303-1.558-0.432-2.359-0.38-0.78 0.051-1.546 0.271-2.238 0.632-0.694 0.362-1.313 0.867-1.806 1.475-0.509 0.629-0.885 1.372-1.078 2.16-0.186 0.76-0.171 1.512-0.057 2.28 0.017 0.128 0.006 0.145-0.11 0.128-4.361-0.649-7.976-2.209-10.911-5.553-0.127-0.145-0.196-0.145-0.301 0.011-1.284 1.925-0.661 5.017 0.943 6.537 0.214 0.203 0.434 0.405 0.671 0.59-0.086 0.018-1.154-0.098-2.105-0.59-0.127-0.081-0.191-0.034-0.203 0.11-0.012 0.208 0.006 0.399 0.035 0.625 0.246 1.951 1.598 3.756 3.448 4.46 0.22 0.092 0.463 0.174 0.699 0.214-0.422 0.092-0.856 0.159-2.065 0.064-0.15-0.029-0.208 0.047-0.15 0.191 0.908 2.476 2.87 3.213 4.339 3.633 0.197 0.035 0.393 0.035 0.591 0.081-0.012 0.018-0.024 0.018-0.035 0.035-0.487 0.743-2.176 1.295-2.963 1.57-1.43 0.5-2.988 0.725-4.5 0.576-0.242-0.036-0.293-0.033-0.358 0-0.067 0.041-0.009 0.099 0.069 0.161 0.307 0.203 0.619 0.382 0.937 0.556 0.96 0.509 1.961 0.914 3.008 1.203 5.406 1.493 11.495 0.396 15.554-3.637 3.188-3.167 4.305-7.535 4.305-11.907 0-0.171 0.202-0.266 0.322-0.356 0.829-0.623 1.499-1.369 2.117-2.202 0.139-0.187 0.14-0.353 0.14-0.422v-0.023c0-0.070-0.002-0.049-0.108 0z"></path>
</symbol>
<symbol id="icon-icon-user" viewBox="0 0 32 32">
<path d="M15.999 16.794c-0.268 0-0.543-0.016-0.817-0.049-3.733-0.448-6.409-3.852-5.962-7.588 0.451-3.734 3.844-6.415 7.589-5.964 3.735 0.449 6.41 3.852 5.964 7.589v0.001c-0.417 3.461-3.371 6.011-6.773 6.011zM15.995 6.839c-1.561 0-2.918 1.17-3.108 2.758-0.204 1.713 1.022 3.275 2.735 3.481 1.709 0.203 3.276-1.021 3.483-2.734v0c0.204-1.714-1.022-3.277-2.737-3.483-0.124-0.015-0.25-0.022-0.373-0.022z"></path>
<path d="M5.418 30.298c1.122-4.947 5.51-8.496 10.569-8.496 0.433 0 0.868 0.026 1.307 0.078 4.692 0.564 8.324 4.053 9.316 8.418h4.18c-1.046-6.428-6.224-11.678-13.008-12.492-7.998-0.963-15.295 4.608-16.573 12.492h4.209z"></path>
</symbol>
<symbol id="icon-icon-web" viewBox="0 0 32 32">
<path d="M16.124 28.396c-6.746 0.048-12.394-5.517-12.441-12.257-0.048-6.865 5.496-12.493 12.347-12.535 6.767-0.041 12.424 5.508 12.471 12.233 0.049 6.916-5.464 12.51-12.377 12.559zM27.282 15.404c-0.238-2.989-1.371-5.435-3.409-7.452-0.894 0.513-1.741 1.001-2.631 1.511 0.835 1.802 1.339 3.69 1.478 5.673 0.007 0.096 0.196 0.255 0.302 0.256 1.392 0.017 2.785 0.011 4.26 0.011zM4.905 15.408c1.393 0 2.708-0.020 4.021 0.011 0.453 0.010 0.521-0.177 0.597-0.572 0.266-1.386 0.58-2.764 0.913-4.137 0.105-0.431 0.326-0.833 0.495-1.251-0.879-0.506-1.726-0.993-2.618-1.506-2.038 2.018-3.175 4.463-3.408 7.455zM24.296 23.609c1.817-1.972 2.795-4.279 2.974-6.957h-4.381c-0.424 1.824-0.831 3.576-1.241 5.338 0.814 0.498 1.7 1.039 2.648 1.619zM4.902 16.635c0.217 2.714 1.167 5.037 2.994 6.969 0.949-0.581 1.847-1.13 2.638-1.614-0.417-1.803-0.822-3.555-1.238-5.354h-4.394zM12.093 9.898c-0.865 1.686-1.344 3.499-1.43 5.472h4.782v-4.857c-1.133-0.208-2.212-0.406-3.352-0.615zM20.1 9.899c-1.178 0.215-2.271 0.415-3.367 0.615v4.851h4.788c-0.082-1.96-0.566-3.76-1.42-5.466zM15.461 16.66h-4.797c0.064 1.625 0.419 3.126 1.039 4.565 0.047 0.109 0.272 0.23 0.388 0.208 1.113-0.219 2.219-0.469 3.37-0.719v-4.054zM16.718 20.714c1.159 0.25 2.248 0.498 3.344 0.705 0.133 0.025 0.406-0.142 0.446-0.272 0.315-1.011 0.612-2.029 0.863-3.057 0.113-0.461 0.108-0.951 0.159-1.442h-4.813v4.066zM8.784 24.469c1.639 1.39 3.392 2.202 5.372 2.546-1.030-1.32-2.026-2.595-3.080-3.945-0.698 0.426-1.456 0.888-2.292 1.399zM18.014 27.028c2.004-0.38 3.773-1.169 5.385-2.57-0.844-0.509-1.607-0.968-2.294-1.382-1.065 1.361-2.060 2.634-3.091 3.952zM12.342 22.538c0.851 1.522 1.812 2.742 3.114 3.823v-4.407c-1.045 0.196-2.029 0.38-3.114 0.584zM16.726 26.366c1.305-1.090 2.271-2.308 3.113-3.832-1.089-0.201-2.073-0.383-3.113-0.575v4.407zM9.262 7.138c0.814 0.445 1.525 0.833 2.187 1.195 0.935-1.144 1.809-2.214 2.741-3.354-1.817 0.318-3.389 1.017-4.928 2.159zM22.919 7.138c-1.54-1.136-3.102-1.853-4.918-2.149 0.932 1.14 1.808 2.211 2.737 3.348 0.671-0.368 1.382-0.759 2.181-1.199zM19.495 8.805c-0.833-1.229-1.643-2.279-2.752-3.16v3.659c0.925-0.168 1.783-0.323 2.752-0.499zM15.461 5.614c-1.12 0.95-1.976 1.957-2.76 3.205 0.99 0.17 1.849 0.317 2.76 0.473v-3.678z"></path>
</symbol>
<symbol id="icon-icon-arrow-left" viewBox="0 0 32 32">
<path d="M20.391 4.391l-11.609 11.609 11.609 11.609 1.885-1.885-9.724-9.724 9.724-9.724-1.885-1.885z"></path>
</symbol>
<symbol id="icon-icon-arrow-right" viewBox="0 0 32 32">
<path d="M9.724 6.276l9.724 9.724-9.724 9.724 1.885 1.885 11.609-11.609-11.609-11.609-1.885 1.885z"></path>
</symbol>
<symbol id="icon-arrow-left-long-solid" viewBox="0 0 32 32">
<path d="M0.586 14.588l8-8c0.781-0.781 2.047-0.781 2.828 0s0.781 2.047 0 2.828l-4.583 4.584h23.169c1.106 0 2 0.894 2 2s-0.894 2-2 2h-23.169l4.586 4.586c0.781 0.781 0.781 2.047 0 2.828s-2.046 0.782-2.828 0l-8-8c-0.785-0.783-0.785-2.046-0.003-2.827z"></path>
</symbol>
<symbol id="icon-arrow-right-long-solid" viewBox="0 0 32 32">
<path d="M31.413 17.413l-8 8c-0.782 0.782-2.047 0.781-2.828 0s-0.781-2.047 0-2.828l4.591-4.584h-23.175c-1.106 0-2-0.894-2-2.056s0.894-1.944 2-1.944h23.175l-4.586-4.586c-0.781-0.781-0.781-2.047 0-2.828s2.047-0.781 2.828 0l8 8c0.777 0.783 0.777 2.046-0.004 2.827z"></path>
</symbol>
<symbol id="icon-location" viewBox="0 0 32 32">
<path d="M16 0c-5.523 0-10 4.477-10 10 0 10 10 22 10 22s10-12 10-22c0-5.523-4.477-10-10-10zM16 16c-3.314 0-6-2.686-6-6s2.686-6 6-6 6 2.686 6 6-2.686 6-6 6z"></path>
</symbol>
</defs>
</svg>
