<svg id="Layer_1" data-name="Layer 1" xmlns="http://www.w3.org/2000/svg" viewBox="0 0 315.4 66.26"><defs><style>.cls-1{fill:#2cafe4;}</style></defs><path class="cls-1" d="M57.8,45.52a11.47,11.47,0,0,1-4.44,9,18.87,18.87,0,0,1-9.46,4.22l-.34,0c-.4,0-1.28-1.22-2.64-3.64s-2.05-3.92-2.05-4.45c0-.19.13-.31.39-.37a27.64,27.64,0,0,0,5-1.45,4.29,4.29,0,0,0,2.69-4,6.11,6.11,0,0,0-1.76-3.76q-3.06-3.53-3.32-3.92a10.59,10.59,0,0,1-1.79-6,9.39,9.39,0,0,1,4.38-7.89A19.72,19.72,0,0,1,53.23,20l.45,0c.26,0,.46.21.62.63a74.55,74.55,0,0,0,3.14,6.84.63.63,0,0,1,.07.26c0,.3-.15.44-.46.44a5.13,5.13,0,0,1-.7-.07,4.33,4.33,0,0,0-.76-.08,6.12,6.12,0,0,0-3.26.85,3.05,3.05,0,0,0-1.69,2.75,6.75,6.75,0,0,0,1.87,3.89L56,39.84A10.4,10.4,0,0,1,57.8,45.52Z" transform="translate(-38.87 -19.97)"/><path class="cls-1" d="M103.37,56.49c0,.61-.26.94-.78,1s-1.8.11-3.84.11a28.69,28.69,0,0,1-3.94-.16c-.52-.1-.78-.53-.78-1.27s0-2,.08-3.57.08-2.77.08-3.56q0-4.54-.11-6.46-.15-3.09-2.93-3.09a3.71,3.71,0,0,0-2.42,1,3.44,3.44,0,0,0-1.34,2.27q-.11,1.08-.1,6.38c0,.81,0,2,.08,3.69s.07,2.89.07,3.72c0,.57-.25.86-.75.86H78.83c-.48,0-.72-.35-.72-1.06s0-2,.07-3.66.08-2.85.08-3.68c0-.64,0-1.61-.05-2.91s0-2.27,0-2.93q0-3.7-2.83-3.71a4.56,4.56,0,0,0-2.46.88,2.6,2.6,0,0,0-1.45,2c0,1.57,0,3.92,0,7.05s0,5.47,0,7c0,.43,0,.7-.16.8a1.35,1.35,0,0,1-.8.21c-.78.07-2,.11-3.69.11-1.08,0-2.32-.06-3.7-.16-.42,0-.67-.09-.74-.18a1.47,1.47,0,0,1-.12-.78q0-2.07,0-6.21t0-6.21a84,84,0,0,0-.62-9.57,2.57,2.57,0,0,1,0-.47.6.6,0,0,1,.36-.6A9.54,9.54,0,0,1,64.15,33c1.3-.12,2.07-.19,2.31-.23s.86-.21,2.05-.54a8,8,0,0,1,2-.37c.33,0,.5.6.52,1.81s.08,1.8.21,1.8a2.67,2.67,0,0,0,.59-.36,24.7,24.7,0,0,1,3.69-2.49,9.84,9.84,0,0,1,4.33-1,8.43,8.43,0,0,1,4.25,1.06,5.51,5.51,0,0,1,2.72,3.35A10.81,10.81,0,0,1,90.66,33a10,10,0,0,1,4.69-1.27,9.15,9.15,0,0,1,5.58,1.58,5.94,5.94,0,0,1,2.44,5.11c0,.91,0,2.29-.08,4.13s-.08,3.22-.08,4.14c0,1.09,0,2.73.08,4.92S103.37,55.4,103.37,56.49Z" transform="translate(-38.87 -19.97)"/><path class="cls-1" d="M134.36,44.48q0,2,.23,5.94t.24,5.91c0,.7-.3,1.07-.91,1.12-2.14.16-4.6.23-7.37.23-.32,0-.54-.49-.66-1.49s-.24-1.5-.4-1.52a2.24,2.24,0,0,0-.54.45,8.73,8.73,0,0,1-6.23,2.93,10.44,10.44,0,0,1-8.38-4,13.42,13.42,0,0,1-3.13-8.92,14,14,0,0,1,3.24-9.65,11.73,11.73,0,0,1,9.23-3.78,7.89,7.89,0,0,1,6.43,2.85c.07.09.13.13.18.13s.34-.42.54-1.26.43-1.26.71-1.26a22.24,22.24,0,0,1,3.66.55,35.85,35.85,0,0,1,3.68.88c.26.1.39.24.39.41a5.25,5.25,0,0,1-.08.55A57.33,57.33,0,0,0,134.36,44.48Zm-8.35.16A5,5,0,0,0,124.62,41a5.26,5.26,0,0,0-7.22,0A5,5,0,0,0,116,44.64a5,5,0,0,0,1.46,3.6A4.69,4.69,0,0,0,121,49.75a4.81,4.81,0,0,0,3.61-1.44A5.06,5.06,0,0,0,126,44.64Z" transform="translate(-38.87 -19.97)"/><path class="cls-1" d="M149,41.84q0,7.08,0,10.86c0,.4,0,1.08.08,2s.08,1.57.08,2-.22.58-.65.65a27.85,27.85,0,0,1-4.2.21,22.2,22.2,0,0,1-4-.21.79.79,0,0,1-.65-.7V55.63c0-1.53,0-3.84.06-6.91s.05-5.36.05-6.88q0-10.91,0-9.94a79.65,79.65,0,0,0-.65-9.88,3.25,3.25,0,0,1-.05-.44c0-.38.23-.57.68-.57h9.26c.43,0,.63.18.59.55l0,.46Q149,33.22,149,41.84Z" transform="translate(-38.87 -19.97)"/><path class="cls-1" d="M163.15,41.84q0,7.08,0,10.86c0,.4,0,1.08.08,2s.08,1.57.08,2-.22.58-.65.65a27.85,27.85,0,0,1-4.2.21,22.12,22.12,0,0,1-4-.21.77.77,0,0,1-.65-.7V55.63c0-1.53,0-3.84.05-6.91s.05-5.36.05-6.88q0-10.91,0-9.94a81.64,81.64,0,0,0-.65-9.88,3.25,3.25,0,0,1-.05-.44c0-.38.22-.57.67-.57h9.26c.43,0,.63.18.6.55l0,.46Q163.15,33.22,163.15,41.84Z" transform="translate(-38.87 -19.97)"/><path class="cls-1" d="M214.14,34.34s-1.61,3.54-4.83,10.45q-4.89,10.59-5.6,11.91a4.48,4.48,0,0,1-.28.52,1.1,1.1,0,0,1-.5.23,24,24,0,0,1-3.68.16,21.41,21.41,0,0,1-3.45-.16,2.66,2.66,0,0,1-.62-.21,1.9,1.9,0,0,1-.34-.49c-.1-.19-.59-1.41-1.48-3.66l-2.82-7.21-2.88,7.29c-.3.83-.78,2-1.45,3.58a3.08,3.08,0,0,1-.37.53,1.48,1.48,0,0,1-.59.17,24.13,24.13,0,0,1-3.4.16,24.38,24.38,0,0,1-3.74-.16,1.16,1.16,0,0,1-.72-.75q-10.17-20.88-10.17-22.36,0-2.07.14-6.21t.15-6.21c0-.57.17-.86.52-.86,1,0,2.47.05,4.47.13s3.5.13,4.5.13c.4,0,.6.17.6.49q0,2.09-.2,6.27t-.19,6.26a22.18,22.18,0,0,0,1.89,5c1.14,2.48,2,4.17,2.49,5.05.26.45.43.68.52.68s.49-.83,1.06-2.49q2.45-7,2.49-8.25.1-2.38,0-6.07c-.05-3.54-.08-5.58-.08-6.09a1.25,1.25,0,0,1,.08-.59,1.32,1.32,0,0,1,.57-.17q1.32-.15,4.56-.15c3.3,0,5,.23,5,.7,0,1.16-.05,3-.13,5.39s-.12,4.17-.11,5.4V34q0,1.32,2.67,8.43a8.72,8.72,0,0,0,1.09,2.46c.09,0,.26-.22.52-.67.49-.85,1.26-2.53,2.34-5A22.12,22.12,0,0,0,204,34.34q0-2.1-.2-6.29t-.19-6.26c0-.31.2-.47.59-.47,1,0,2.56,0,4.61-.13s3.58-.13,4.6-.13c.33,0,.49.35.49,1q0,2.05.15,6.13C214.09,31,214.14,33,214.14,34.34Z" transform="translate(-38.87 -19.97)"/><path class="cls-1" d="M242.72,44.69a13.14,13.14,0,0,1-3.62,9.6,14,14,0,0,1-18.89.05A12.53,12.53,0,0,1,216.52,45a13.67,13.67,0,0,1,3.53-9.76,12.47,12.47,0,0,1,9.55-3.75,12.76,12.76,0,0,1,9.49,3.67A13,13,0,0,1,242.72,44.69Zm-8.51,0a5.57,5.57,0,0,0-1.27-3.62,4.06,4.06,0,0,0-3.29-1.57,4.17,4.17,0,0,0-3.37,1.61,5.78,5.78,0,0,0,0,7.18,4.3,4.3,0,0,0,6.71,0A5.49,5.49,0,0,0,234.21,44.69Z" transform="translate(-38.87 -19.97)"/><path class="cls-1" d="M263.05,41.29c0,.68-.37,1-1.11,1q-.49,0-1.44-.06c-.63,0-1.1-.07-1.42-.07a4.63,4.63,0,0,0-2.93.68,3.62,3.62,0,0,0-.77,2.72c0,.75,0,1.87,0,3.39s0,2.64,0,3.38c0,.5,0,1.25.11,2.24s.1,1.74.1,2.22-.28.65-.85.7c-.83.07-2.11.11-3.82.11s-3-.06-3.94-.16c-.57-.07-.86-.35-.86-.86q0-2.07,0-6.21t0-6.21a37.85,37.85,0,0,0-1.12-10,2.08,2.08,0,0,1,0-.39.5.5,0,0,1,.39-.51q1.42-.16,4.17-.57c2.74-.54,4.14-.81,4.23-.81.31,0,.51.55.6,1.64s.24,1.63.46,1.63c-.24,0,.47-.45,2.13-1.36a10,10,0,0,1,4.8-1.36c1,0,1.45.2,1.45.62a21.16,21.16,0,0,1-.15,2.13c-.11,1-.17,1.69-.19,2.12s0,1.17,0,2C263,40.29,263.05,41,263.05,41.29Z" transform="translate(-38.87 -19.97)"/><path class="cls-1" d="M275.53,41.84c0,4.72,0,8.34.05,10.86,0,.4,0,1.08.08,2s.08,1.57.08,2-.22.58-.65.65a27.85,27.85,0,0,1-4.2.21,22.12,22.12,0,0,1-4-.21.77.77,0,0,1-.65-.7V55.63c0-1.53,0-3.84.05-6.91s.05-5.36.05-6.88q0-10.91,0-9.94a81.64,81.64,0,0,0-.65-9.88,3.25,3.25,0,0,1-.05-.44c0-.38.22-.57.67-.57h9.26c.43,0,.63.18.6.55l0,.46Q275.52,33.22,275.53,41.84Z" transform="translate(-38.87 -19.97)"/><path class="cls-1" d="M307.77,20.65q0-.57-.21,1.71-.29,2.88-.44,7.36-.21,5.09-.21,11.57a132.73,132.73,0,0,0,.6,15.25c0,.33.05.54.05.62s-.13.31-.39.34q-.93.14-6.87.13c-.94,0-1.47-.18-1.61-.54,0-.66-.07-1.32-.11-2a.74.74,0,0,0-.2-.42A1.53,1.53,0,0,0,298,55a9.57,9.57,0,0,1-7,2.75,11,11,0,0,1-8.77-3.84,13.68,13.68,0,0,1-3.14-9.23,13.93,13.93,0,0,1,3.09-9.31A10.92,10.92,0,0,1,291,31.49,7.66,7.66,0,0,1,297.08,34c.24.28.41.41.52.41s.23-.22.23-.67q0-2-.1-6t-.11-5.94c0-.5.14-.78.42-.85,1.11-.05,2.63-.16,4.56-.31a37.62,37.62,0,0,0,4.59-.65C307.57,20,307.77,20.22,307.77,20.65ZM298,44.48a5.14,5.14,0,0,0-1.43-3.59,4.52,4.52,0,0,0-3.45-1.54,4.12,4.12,0,0,0-3.38,1.54,5.66,5.66,0,0,0-1.26,3.7,5.19,5.19,0,0,0,1.27,3.55,4.17,4.17,0,0,0,3.37,1.56,4.51,4.51,0,0,0,3.48-1.56A5.32,5.32,0,0,0,298,44.48Z" transform="translate(-38.87 -19.97)"/><path class="cls-1" d="M351.05,47.81a11.22,11.22,0,0,1-1.84,17.24C324.5,81.17,251.7,101.8,39,68.11c5.89.71,239.9,28.49,296.54-20.81a11.3,11.3,0,0,1,15.53.51Z" transform="translate(-38.87 -19.97)"/></svg>