<?xml version="1.0" encoding="UTF-8"?>
<svg id="Layer_1" data-name="Layer 1" xmlns="http://www.w3.org/2000/svg" viewBox="0 0 900 900">
  <path d="M453.49,798.64c-189.74,1.34-348.58-155.16-349.9-344.74-1.34-193.07,154.58-351.37,347.26-352.54,190.32-1.16,349.42,154.91,350.75,344.06,1.37,194.51-153.68,351.84-348.11,353.22Zm313.82-365.39c-6.69-84.07-38.56-152.86-95.89-209.58-25.14,14.44-48.98,28.14-74.01,42.51,23.49,50.68,37.67,103.78,41.58,159.54,.19,2.7,5.52,7.18,8.49,7.21,39.16,.49,78.32,.32,119.82,.32Zm-629.37,.09c39.19,0,76.15-.55,113.09,.3,12.75,.29,14.66-4.97,16.79-16.1,7.47-38.99,16.31-77.75,25.67-116.34,2.94-12.12,9.17-23.43,13.92-35.18-24.72-14.22-48.55-27.93-73.63-42.36-57.31,56.76-89.31,125.52-95.84,209.68Zm545.38,230.65c51.11-55.46,78.6-120.36,83.65-195.66h-123.22c-11.93,51.31-23.38,100.57-34.9,150.13,22.9,14,47.8,29.23,74.47,45.54ZM137.88,467.86c6.11,76.32,32.81,141.68,84.21,195.99,26.69-16.33,51.94-31.79,74.19-45.4-11.72-50.71-23.11-99.97-34.82-150.59h-123.58Zm202.23-189.48c-24.33,47.43-37.8,98.42-40.21,153.9h134.49v-136.59c-31.86-5.85-62.2-11.42-94.28-17.3Zm225.2,.03c-33.12,6.04-63.88,11.66-94.71,17.29v136.44h134.65c-2.31-55.13-15.91-105.74-39.94-153.73Zm-130.48,190.14h-134.91c1.81,45.69,11.78,87.93,29.21,128.39,1.32,3.07,7.66,6.48,10.9,5.84,31.29-6.17,62.42-13.18,94.79-20.21v-114.02Zm35.36,114.02c32.61,7.04,63.23,14.01,94.06,19.83,3.73,.7,11.42-3.98,12.55-7.64,8.85-28.43,17.2-57.07,24.28-85.99,3.17-12.97,3.05-26.74,4.47-40.57h-135.36v114.37Zm-223.13,105.61c46.11,39.08,95.41,61.93,151.08,71.61-28.98-37.12-56.97-72.97-86.63-110.95-19.62,11.97-40.94,24.98-64.45,39.34Zm259.59,71.99c56.37-10.69,106.12-32.87,151.45-72.27-23.75-14.31-45.19-27.23-64.52-38.88-29.94,38.28-57.94,74.09-86.93,111.15Zm-159.53-126.29c23.93,42.8,50.97,77.12,87.59,107.52v-123.95c-29.4,5.51-57.06,10.7-87.59,16.42Zm123.31,107.65c36.7-30.66,63.86-64.91,87.55-107.77-30.63-5.66-58.29-10.77-87.55-16.18v123.95ZM260.5,200.75c22.89,12.51,42.89,23.43,61.52,33.61,26.29-32.18,50.89-62.28,77.08-94.33-51.1,8.95-95.32,28.61-138.6,60.72Zm384.09,.01c-43.3-31.96-87.25-52.11-138.31-60.44,26.22,32.07,50.84,62.19,76.97,94.15,18.86-10.36,38.86-21.36,61.34-33.71Zm-96.3,46.87c-23.44-34.56-46.22-64.09-77.41-88.88v102.91c26.03-4.72,50.15-9.09,77.41-14.03Zm-113.46-89.73c-31.51,26.71-55.58,55.05-77.62,90.15,27.85,4.77,52.01,8.91,77.62,13.29v-103.45Z"/>
</svg>