<?xml version="1.0" encoding="UTF-8"?>
<svg id="Layer_1" data-name="Layer 1" xmlns="http://www.w3.org/2000/svg" viewBox="0 0 900 900">
  <path d="M435.63,817.44c-49.61,0-97.75-9.72-143.07-28.89-43.77-18.51-83.07-45.01-116.82-78.76-33.75-33.75-60.25-73.05-78.76-116.82-19.17-45.32-28.89-93.46-28.89-143.07s9.72-97.75,28.89-143.07c18.51-43.77,45.01-83.07,78.76-116.82,33.75-33.75,73.05-60.25,116.82-78.76,45.32-19.17,93.46-28.89,143.07-28.89s97.75,9.72,143.07,28.89c43.77,18.51,83.07,45.01,116.82,78.76,33.75,33.75,60.25,73.05,78.76,116.82,19.17,45.32,28.89,93.46,28.89,143.07s-9.72,97.75-28.89,143.07c-18.51,43.77-45.01,83.07-78.76,116.82-33.75,33.75-73.05,60.25-116.82,78.76-45.32,19.17-93.46,28.89-143.07,28.89Zm0-700.64c-183.67,0-333.1,149.43-333.1,333.1s149.43,333.1,333.1,333.1,333.1-149.43,333.1-333.1S619.3,116.8,435.63,116.8Z"/>
  <path d="M630.1,614.13l-156.58-156.58c-4.23-4.23-4.23-11.09,0-15.31l156.58-156.58c4.23-4.23,4.23-11.09,0-15.31l-14.93-14.93c-4.23-4.23-11.09-4.23-15.31,0l-156.58,156.58c-4.23,4.23-11.09,4.23-15.31,0l-156.58-156.58c-4.23-4.23-11.09-4.23-15.31,0l-14.93,14.93c-4.23,4.23-4.23,11.09,0,15.31l156.58,156.58c4.23,4.23,4.23,11.09,0,15.31l-156.58,156.58c-4.23,4.23-4.23,11.09,0,15.31l14.93,14.93c4.23,4.23,11.09,4.23,15.31,0l156.58-156.58c4.23-4.23,11.09-4.23,15.31,0l156.58,156.58c4.23,4.23,11.09,4.23,15.31,0l14.93-14.93c4.23-4.23,4.23-11.09,0-15.31Z"/>
</svg>