<?xml version="1.0" encoding="UTF-8"?>
<svg id="Layer_1" data-name="Layer 1" xmlns="http://www.w3.org/2000/svg" viewBox="0 0 900 900">
  <defs>
    <style>
      .cls-1 {
        fill: #232324;
      }
    </style>
  </defs>
  <path class="cls-1" d="M522.63,31.22h-103.44c-65.13,0-118.12,52.99-118.12,118.12v121.8c0,7.21,5.87,13.08,13.08,13.08h15.57c7.21,0,13.08-5.87,13.08-13.08v-112.21c0-49.83,40.54-90.37,90.37-90.37h75.49c49.83,0,90.37,40.54,90.37,90.37v112.21c0,7.21,5.87,13.08,13.08,13.08h15.57c7.21,0,13.08-5.87,13.08-13.08v-121.8c0-65.13-52.99-118.12-118.12-118.12Z"/>
  <path class="cls-1" d="M799.57,785.54l-64.13-414.04c-5.45-35.18-35.73-61.13-71.33-61.13H275.9c-35.6,0-65.88,25.95-71.33,61.13l-64.13,414.04c-6.78,43.75,27.06,83.23,71.33,83.23H728.23c44.27,0,78.11-39.48,71.33-83.23ZM320.84,409.22c-17.55,0-31.77-14.23-31.77-31.77s14.23-31.77,31.77-31.77,31.77,14.23,31.77,31.77-14.23,31.77-31.77,31.77Zm298.33,0c-17.55,0-31.77-14.23-31.77-31.77s14.23-31.77,31.77-31.77,31.77,14.23,31.77,31.77-14.23,31.77-31.77,31.77Z"/>
</svg>