<?xml version="1.0" encoding="UTF-8"?>
<svg id="Layer_1" data-name="Layer 1" xmlns="http://www.w3.org/2000/svg" viewBox="0 0 900 900">
  <path d="M664.3,333.26h-31.65v-110.82c0-90.62-73.73-164.35-164.35-164.35s-164.35,73.73-164.35,164.35v110.82h-43.62c-33.21,0-60.23,27.02-60.23,60.23v403.98c0,33.21,27.02,60.23,60.23,60.23h403.98c33.21,0,60.23-27.02,60.23-60.23V393.5c0-33.21-27.02-60.23-60.23-60.23Zm-325.35-110.82c0-71.33,58.03-129.35,129.35-129.35s129.35,58.03,129.35,129.35v110.82H338.95v-110.82Zm350.58,575.03c0,13.91-11.32,25.23-25.23,25.23H260.33c-13.91,0-25.23-11.32-25.23-25.23V393.5c0-13.91,11.32-25.23,25.23-25.23h43.62s328.7,0,328.7,0h0s31.65,0,31.65,0c13.91,0,25.23,11.32,25.23,25.23v403.98Z"/>
</svg>