<?xml version="1.0" encoding="UTF-8"?>
<svg id="Layer_1" data-name="Layer 1" xmlns="http://www.w3.org/2000/svg" viewBox="0 0 900 900">
  <defs>
    <style>
      .cls-1 {
        fill: #232324;
      }
    </style>
  </defs>
  <path class="cls-1" d="M649.9,223.26c-24.44,0-44.27,19.82-44.27,44.26s19.82,44.27,44.27,44.27,44.27-19.82,44.27-44.27-19.82-44.26-44.27-44.26Z"/>
  <path class="cls-1" d="M453.1,280.03c-102.54,0-185.96,83.42-185.96,185.96s83.42,185.96,185.96,185.96,185.96-83.42,185.96-185.96-83.42-185.96-185.96-185.96Zm0,305.07c-65.69,0-119.12-53.43-119.12-119.12s53.44-119.12,119.12-119.12,119.11,53.43,119.11,119.12-53.43,119.12-119.11,119.12Z"/>
  <path class="cls-1" d="M600.73,843.54H299.26c-125.06,0-226.81-101.74-226.81-226.81V315.25c0-125.07,101.74-226.81,226.81-226.81h301.47c125.06,0,226.82,101.74,226.82,226.81v301.48c0,125.06-101.76,226.81-226.82,226.81ZM299.26,159.48c-85.9,0-155.77,69.87-155.77,155.77v301.48c0,85.9,69.87,155.77,155.77,155.77h301.47c85.9,0,155.78-69.87,155.78-155.77V315.25c0-85.9-69.88-155.77-155.78-155.77H299.26Z"/>
</svg>