<?xml version="1.0" encoding="UTF-8"?>
<svg id="Layer_1" data-name="Layer 1" xmlns="http://www.w3.org/2000/svg" viewBox="0 0 900 900">
  <defs>
    <style>
      .cls-1 {
        fill: #232324;
      }

      .cls-2 {
        fill: #fff;
      }
    </style>
  </defs>
  <path class="cls-1" d="M831.01,450c0-210.42-170.58-381-381.01-381S68.99,239.58,68.99,450c0,190.17,139.33,347.79,321.47,376.38v-266.24h-96.74v-110.14h96.74v-83.94c0-95.49,56.88-148.23,143.91-148.23,41.69,0,85.29,7.44,85.29,7.44v93.76h-48.05c-47.33,0-62.09,29.37-62.09,59.5v71.47h105.67l-16.89,110.14h-88.78v266.24c182.15-28.58,321.48-186.2,321.48-376.38Z"/>
  <path class="cls-2" d="M598.31,560.13l16.89-110.14h-105.67v-71.47c0-30.13,14.76-59.5,62.09-59.5h48.05v-93.76s-43.6-7.44-85.29-7.44c-87.03,0-143.91,52.74-143.91,148.23v83.94h-96.74v110.14h96.74v266.24c19.4,3.04,39.28,4.63,59.53,4.63s40.13-1.59,59.53-4.63v-266.24h88.78Z"/>
</svg>