<?xml version="1.0" encoding="UTF-8"?>
<svg id="Layer_1" data-name="Layer 1" xmlns="http://www.w3.org/2000/svg" viewBox="0 0 900 900">
  <defs>
    <style>
      .cls-1 {
        fill: #232324;
      }
    </style>
  </defs>
  <path class="cls-1" d="M819.35,232.96c-23.65,10.7-49.81,17.18-75.33,21.47,12.11-2.04,29.9-23.97,37.03-32.84,10.88-13.52,19.91-28.94,25-45.59,.66-1.3,1.14-2.93-.16-3.91-1.64-.65-2.69-.32-3.99,.33-28.48,15.27-57.95,26.33-89.32,34.17-2.59,.65-4.53,0-6.16-1.63-2.6-2.93-5.04-5.7-7.8-7.98-13.18-11.22-27.32-20.01-43.26-26.51-20.93-8.53-43.81-12.14-66.35-10.68-21.94,1.43-43.48,7.61-62.94,17.78-19.51,10.19-36.92,24.38-50.79,41.48-14.33,17.7-24.9,38.58-30.32,60.74-5.22,21.37-4.8,42.52-1.61,64.12,.48,3.59,.16,4.07-3.08,3.59-122.66-18.25-224.32-62.14-306.87-156.19-3.58-4.08-5.52-4.08-8.46,.31-36.12,54.14-18.6,141.11,26.52,183.85,6.02,5.7,12.2,11.39,18.86,16.59-2.43,.5-32.45-2.75-59.21-16.59-3.58-2.27-5.38-.97-5.7,3.1-.33,5.85,.17,11.23,.98,17.57,6.92,54.88,44.93,105.63,96.98,125.44,6.18,2.6,13.01,4.88,19.67,6.02-11.86,2.6-24.07,4.46-58.07,1.79-4.23-.81-5.85,1.31-4.23,5.37,25.55,69.65,80.71,90.38,122.02,102.18,5.53,.97,11.06,.97,16.61,2.27-.34,.5-.67,.5-.99,.98-13.69,20.89-61.2,36.43-83.33,44.16-40.23,14.07-84.04,20.39-126.56,16.2-6.81-1-8.23-.92-10.08,0-1.87,1.15-.24,2.78,1.95,4.54,8.63,5.7,17.41,10.75,26.36,15.63,27,14.31,55.16,25.71,84.6,33.84,152.04,41.99,323.3,11.13,437.46-102.29,89.65-89.07,121.07-211.91,121.07-334.89,0-4.81,5.68-7.47,9.05-10.01,23.33-17.53,42.15-38.5,59.55-61.92,3.9-5.26,3.95-9.93,3.95-11.86v-.64c0-1.97-.05-1.38-3.05,0Z"/>
</svg>