<?xml version="1.0" encoding="UTF-8"?>
<svg id="Layer_1" data-name="Layer 1" xmlns="http://www.w3.org/2000/svg" viewBox="0 0 900 900">
  <path d="M724.33,747.19l-236.84-263.91c33.14-36.62,52.59-83.1,55.3-133.1,3.12-57.66-16.41-113.08-54.97-156.06-38.57-42.97-91.56-68.36-149.22-71.48-57.66-3.12-113.08,16.41-156.06,54.97-42.97,38.57-68.36,91.56-71.48,149.22-3.12,57.66,16.41,113.08,54.97,156.06,38.57,42.98,91.56,68.36,149.22,71.48,3.99,.22,7.97,.32,11.94,.32,49.54,0,96.88-16.75,135.42-47.9l236.24,263.25c1.84,2.05,5,2.22,7.05,.38l18.04-16.19c2.05-1.84,2.22-5,.38-7.05Zm-407.13-228.76c-48.06-2.6-92.23-23.75-124.37-59.57-66.36-73.94-60.19-188.08,13.76-254.44,34.35-30.83,77.37-46,120.25-46,49.42,0,98.66,20.16,134.19,59.75,66.36,73.94,60.19,188.08-13.76,254.44-35.82,32.14-82.01,48.41-130.07,45.82Z"/>
</svg>