<?xml version="1.0" encoding="UTF-8"?>
<svg id="Layer_1" data-name="Layer 1" xmlns="http://www.w3.org/2000/svg" viewBox="0 0 900 900">
  <defs>
    <style>
      .cls-1 {
        fill: #fff;
      }
    </style>
  </defs>
  <path d="M519.56,518.24l230.06,1.58c5.45,.04,8.08-6.67,4.06-10.35L334.41,126.42h0s0,0,0,0h0s0,0,0,0l23.06,567.43c.22,5.45,7.04,7.76,10.53,3.56l146.94-177.02c1.14-1.37,2.84-2.16,4.62-2.15Z"/>
  <path class="cls-1" d="M363.51,723.09c-3.17,0-6.39-.52-9.54-1.58-11.65-3.94-19.49-14.42-19.99-26.7l-23.05-567.13c-.06-1.07-.04-2.15,.05-3.22,.23-2.77,.95-5.42,2.07-7.86,1.07-2.33,2.54-4.51,4.38-6.43,3.06-3.2,7.03-5.55,11.58-6.62,3.86-.91,7.76-.81,11.4,.15,0,0,.01,0,.02,0,0,0,0,0,.01,0,1.22,.32,2.42,.75,3.59,1.27,2.41,1.08,4.64,2.57,6.58,4.41l418.92,382.74c9.08,8.29,12.04,21.04,7.56,32.49-4.46,11.38-15.21,18.7-27.41,18.7-.07,0-.14,0-.21,0l-221.74-1.52-141.63,170.62c-5.73,6.9-13.99,10.67-22.56,10.67Zm-3.34-541.3l18.92,465.46,117.76-141.87c5.66-6.83,13.98-10.74,22.87-10.64l184.36,1.26L360.17,181.79Z"/>
</svg>