<?xml version="1.0" encoding="UTF-8"?>
<svg id="Layer_1" data-name="Layer 1" xmlns="http://www.w3.org/2000/svg" viewBox="0 0 900 900">
  <path d="M450,817.54c-49.61,0-97.75-9.72-143.07-28.89-43.77-18.51-83.07-45.01-116.82-78.76-33.75-33.75-60.25-73.05-78.76-116.82-19.17-45.32-28.89-93.46-28.89-143.07s9.72-97.75,28.89-143.07c18.51-43.77,45.01-83.07,78.76-116.82,33.75-33.75,73.05-60.25,116.82-78.76,45.32-19.17,93.46-28.89,143.07-28.89s97.75,9.72,143.07,28.89c43.77,18.51,83.07,45.01,116.82,78.76,33.75,33.75,60.25,73.05,78.76,116.82,19.17,45.32,28.89,93.46,28.89,143.07s-9.72,97.75-28.89,143.07c-18.51,43.77-45.01,83.07-78.76,116.82-33.75,33.75-73.05,60.25-116.82,78.76-45.32,19.17-93.46,28.89-143.07,28.89Zm0-700.64c-183.67,0-333.1,149.43-333.1,333.1s149.43,333.1,333.1,333.1,333.1-149.43,333.1-333.1S633.67,116.9,450,116.9Z"/>
  <path d="M429.34,719.49c-5.59-.15-10.96-2.5-14.89-6.64l-159.93-168.68c-8.09-8.54-7.73-22.02,.8-30.11,8.54-8.09,22.02-7.74,30.11,.8l138.23,145.79,187-409.06c4.89-10.7,17.52-15.41,28.22-10.51,10.7,4.89,15.41,17.53,10.51,28.22l-200.11,437.75c-2.94,6.44-8.89,10.99-15.87,12.15-1.36,.23-2.72,.32-4.07,.28Z"/>
</svg>