<?xml version="1.0" encoding="UTF-8"?>
<svg id="Layer_1" data-name="Layer 1" xmlns="http://www.w3.org/2000/svg" viewBox="0 0 900 900">
  <defs>
    <style>
      .cls-1 {
        fill: #232324;
      }
    </style>
  </defs>
  <path class="cls-1" d="M449.98,472.34c-7.55,0-15.27-.45-22.99-1.38-105-12.6-180.24-108.35-167.67-213.4,12.68-105.03,108.1-180.41,213.43-167.73,105.05,12.62,180.29,108.35,167.73,213.43v.03c-11.72,97.33-94.8,169.05-190.49,169.05Zm-.11-279.99c-43.9,0-82.06,32.91-87.41,77.58-5.75,48.19,28.74,92.12,76.93,97.9,48.07,5.72,92.15-28.72,97.95-76.9h0c5.75-48.22-28.74-92.18-76.99-97.95-3.49-.42-7.04-.62-10.48-.62Z"/>
  <path class="cls-1" d="M152.39,852.12c31.56-139.14,154.98-238.96,297.25-238.96,12.17,0,24.4,.73,36.75,2.2,131.97,15.85,234.12,113.99,262.01,236.77h117.57c-29.43-180.8-175.06-328.44-365.84-351.34-224.95-27.08-430.17,129.6-466.12,351.34h118.37Z"/>
</svg>