<?xml version="1.0" encoding="UTF-8"?>
<svg id="Layer_1" data-name="Layer 1" xmlns="http://www.w3.org/2000/svg" viewBox="0 0 900 900">
  <path d="M733.99,753.29H166.01c-19.24,0-36.47-9.95-46.09-26.61-9.62-16.66-9.62-36.56,0-53.22L403.91,181.58c9.62-16.66,26.85-26.61,46.09-26.61s36.47,9.95,46.09,26.61l283.99,491.88c9.62,16.66,9.62,36.55,0,53.22-9.62,16.66-26.85,26.61-46.09,26.61ZM419.07,190.33l15.16,8.75L150.24,690.96c-4.75,8.22-1.58,15.48,0,18.22,1.58,2.74,6.28,9.11,15.78,9.11H733.99c9.49,0,14.2-6.37,15.78-9.11s4.75-10,0-18.22L465.78,199.08c-4.75-8.22-12.61-9.11-15.78-9.11s-11.03,.89-15.78,9.11l-15.16-8.75Z"/>
  <path d="M450,601.39c17.79,0,31.58,14.03,31.58,31.08s-13.78,31.33-31.58,31.33-31.58-14.03-31.58-31.33,14.03-31.08,31.58-31.08Zm-14.04-290.49h28.07c7.2,0,13.03,5.83,13.03,13.03v237.58c0,7.2-5.83,13.03-13.03,13.03h-28.07c-7.2,0-13.03-5.83-13.03-13.03v-237.58c0-7.2,5.83-13.03,13.03-13.03Z"/>
</svg>